<svg width="213" height="213" viewBox="0 0 213 213" fill="none" xmlns="http://www.w3.org/2000/svg">
<path d="M106.5 0C47.7 0 0 47.7 0 106.5C0 165.3 47.7 213 106.5 213C165.3 213 213 165.3 213 106.5C212.9 47.6 165.3 0 106.5 0ZM54.1 81.2C46.6 81.2 40.5 75.1 40.5 67.6C40.5 60.1 46.6 54 54.1 54C61.6 54 67.7 60.1 67.7 67.6C67.7 75.2 61.6 81.2 54.1 81.2ZM87.5 28.6C95 28.6 101.1 34.7 101.1 42.2C101.1 49.7 95 55.8 87.5 55.8C80 55.8 73.9 49.7 73.9 42.2C73.9 34.7 80 28.6 87.5 28.6ZM90.9 94.8C83.4 94.8 77.3 88.7 77.3 81.2C77.3 73.7 83.4 67.6 90.9 67.6C98.4 67.6 104.5 73.7 104.5 81.2C104.5 88.7 98.4 94.8 90.9 94.8Z" fill="#221F1F"/>
</svg>
